HIERARCHY
ROOT Hips
{
  OFFSET 0 0 0
  CHANNELS 6 Xposition Yposition Zposition Zrotation Yrotation Xrotation
  JOINT LeftThigh
  {
    OFFSET 8.409438 0 -5.917753
    CHANNELS 3 Zrotation Yrotation Xrotation
    JOINT LeftLeg
    {
      OFFSET 0 0 -42.358652
      CHANNELS 3 Zrotation Yrotation Xrotation
      JOINT LeftFoot
      {
        OFFSET 0 0 -39.357303
        CHANNELS 3 Zrotation Yrotation Xrotation
      }
    }
  }
  JOINT RightThigh
  {
    OFFSET -8.409438 0 -5.917753
    CHANNELS 3 Zrotation Yrotation Xrotation
    JOINT RightLeg
    {
      OFFSET 0 0 -42.358652
      CHANNELS 3 Zrotation Yrotation Xrotation
      JOINT RightFoot
      {
        OFFSET 0 0 -39.357303
        CHANNELS 3 Zrotation Yrotation Xrotation
      }
    }
  }
  JOINT SpineLow
  {
    OFFSET 0 0 4.719101
    CHANNELS 3 Zrotation Yrotation Xrotation
    JOINT SpineMid
    {
      OFFSET 0 0 12.899191
      CHANNELS 3 Zrotation Yrotation Xrotation
      JOINT Chest
      {
        OFFSET 0 0 12.899191
        CHANNELS 3 Zrotation Yrotation Xrotation
        JOINT LeftShoulder
        {
          OFFSET 7.550562 1.41573 9.438202
          CHANNELS 3 Zrotation Yrotation Xrotation
          JOINT LeftArm
          {
            OFFSET 9.155056 0 4.247191
            CHANNELS 3 Zrotation Yrotation Xrotation
            JOINT LeftForearm
            {
              OFFSET 0 0 25.771955
              CHANNELS 3 Zrotation Yrotation Xrotation
              JOINT LeftHand
              {
                OFFSET 0 0 25.197169
                CHANNELS 3 Zrotation Yrotation Xrotation
              }
            }
          }
        }
        JOINT RightShoulder
        {
          OFFSET -7.550562 1.41573 9.438202
          CHANNELS 3 Zrotation Yrotation Xrotation
          JOINT RightArm
          {
            OFFSET -9.155056 0 4.247191
            CHANNELS 3 Zrotation Yrotation Xrotation
            JOINT RightForearm
            {
              OFFSET 0 0 -25.771955
              CHANNELS 3 Zrotation Yrotation Xrotation
              JOINT RightHand
              {
                OFFSET 0 0 -25.197169
                CHANNELS 3 Zrotation Yrotation Xrotation
              }
            }
          }
        }
        JOINT Neck
        {
          OFFSET 0 0 15.101124
          CHANNELS 3 Zrotation Yrotation Xrotation
          JOINT Head
          {
            OFFSET 0 0 11.325843
            CHANNELS 3 Zrotation Yrotation Xrotation
            End Site
            {
              OFFSET 0 0 14.157303
            }
          }
        }
      }
    }
  }
}
MOTION
Frames: 5
Frame Time: 0.01
0.0  101.685394  0.0  -1.010256  -5.580718  -104.4792  40.408438  -27.717458  -0.954746  -8.801835  11.330422  36.295833  8.097569  4.162905  3.573719  -8.905415  12.083247  -9.101049  11.244074  2.624943  33.082478  6.414085  4.818187  -2.445322  -1.468565  -1.449136  2.1003  -4.140885  -3.82834  5.832624  -4.140885  -3.82834  5.832624  -13.88253  29.183949  8.035766  95.458125  72.529675  161.609191  -31.302648  -9.453496  106.441918  48.553538  11.282591  -39.474611  17.794934  -5.693235  26.830698  68.689299  59.377495  -17.079336  -21.479043  -13.743612  -92.980788  66.035814  14.616933  1.705208  12.536135  2.552017  -2.038897  9.409182  1.873148  -1.5821  
0.0  101.685394  0.0  -0.880665  -4.520963  -104.084431  40.108684  -27.139905  -1.495183  -9.254773  11.497139  36.477739  8.028035  4.126305  3.483194  -9.043884  12.298893  -9.267394  11.034381  2.745979  33.255351  6.092137  4.873614  -2.490982  -1.535327  -1.424904  2.040023  -4.317788  -3.760262  5.669797  -4.317788  -3.760262  5.669797  -13.845561  29.384849  8.141148  95.275679  72.714004  161.899608  -31.47998  -11.420966  106.803936  46.015937  11.95121  -40.0094  17.793437  -5.563848  26.706859  68.484816  59.919139  -17.153338  -21.483242  -13.540405  -93.263855  66.29969  14.565391  1.233725  12.504946  2.647746  -2.104246  9.386286  1.943746  -1.632936  
0.0  101.685394  0.0  -0.83937  -2.97198  -103.663809  39.475191  -26.546597  -2.168017  -9.84369  11.696438  36.625295  7.931014  4.107119  3.401553  -9.6922  12.597467  -9.314114  10.839621  2.907273  33.209937  5.58713  4.898479  -2.551436  -1.670031  -1.406696  2.007418  -4.682589  -3.701223  5.586669  -4.682589  -3.701222  5.586669  -13.930071  29.5103  7.889493  95.383023  72.885614  162.550981  -31.554428  -12.883753  106.627917  44.322121  12.350008  -39.816129  17.904325  -5.336077  26.347597  68.338581  60.429053  -17.059982  -21.490535  -13.53652  -93.846807  66.499828  14.230112  0.78019  12.477503  2.786614  -2.323522  9.367035  2.043568  -1.800132  
0.0  101.685394  0.0  -0.908229  -0.819053  -103.245897  38.424554  -25.965522  -2.94775  -10.447194  11.895441  36.784881  7.8415  4.10161  3.376949  -10.775267  12.83091  -9.15123  10.646739  3.121069  32.986945  5.078284  4.959954  -2.605398  -1.891843  -1.396657  2.000877  -5.287686  -3.655356  5.579927  -5.287686  -3.655356  5.579927  -14.006595  29.570762  7.342741  95.704377  73.016669  163.548471  -31.481464  -13.700023  106.239164  43.730062  12.720377  -39.025919  18.154134  -5.02645  25.69614  68.25499  60.839342  -16.762659  -21.442573  -13.904929  -94.605838  66.828526  13.733241  0.358146  12.442055  2.938412  -2.690613  9.342646  2.150141  -2.078419  
0.0  101.685394  0.0  -1.092378  1.956822  -102.825224  37.002524  -25.427572  -3.828899  -11.155042  12.136756  36.849561  7.521197  4.039855  3.247408  -12.339644  13.080974  -8.783038  10.209169  3.466991  32.479345  4.582072  5.010677  -2.637128  -2.18194  -1.39862  1.998342  -6.080737  -3.636081  5.588608  -6.080737  -3.636081  5.588608  -14.374073  29.658991  6.48462  96.201268  72.999768  164.671083  -31.425369  -14.095134  105.622307  44.040194  13.089916  -37.620355  18.484158  -4.687768  24.966083  67.949638  61.254157  -16.450879  -21.476405  -14.472575  -95.484705  67.134257  12.999709  -0.144299  12.297209  3.050928  -3.132364  9.236652  2.226311  -2.411328  
